#!OML:ASF H:\MichaelJackson\Top Level 1\Subject 1\Session 1\male.ASF
:FULLY-SPECIFIED
:DEGREES
819
root 5.57771 16.704 1.84234 4.99669 2.71429 7.32123
lowerback 3.63437 2.14016 -8.11312
upperback 4.2412 2.72878 -1.54628
thorax 2.06864 1.17797 2.87984
lowerneck -11.0789 -3.80805 1.55608
upperneck 38.8113 -5.76067 -0.830774
head 15.3944 -2.26382 -1.52454
rclavicle -1.89342e-014 7.95139e-015
rhumerus -18.1476 38.6945 -85.3198
rradius 135.56
rwrist -16.3426
rhand -44.53 -62.0921
rfingers 7.12502
rthumb -17.3313 451.339
lclavicle -1.89342e-014 7.95139e-015
lhumerus -57.0797 -8.25425 93.1292
lradius 50.989
lwrist 9.83978
lhand -9.95088 9.98885
lfingers 7.12502
lthumb 16.0309 39.3456
rfemur -49.6199 -12.2583 14.4258
rtibia 72.0743
rfoot 21.1438 11.9901
rtoes 37.7299
lfemur -14.8834 3.99979 -29.5268
ltibia 35.9247
lfoot -21.2651 -13.3745
ltoes 31.933
820
root 5.56326 16.6586 1.89301 4.75736 2.98024 7.44053
lowerback 3.71983 2.17167 -8.48778
upperback 4.28591 2.75821 -1.59184
thorax 2.0539 1.18313 3.03665
lowerneck -11.0835 -3.9086 1.69767
upperneck 38.8122 -6.00832 -0.681459
head 15.3945 -2.32702 -1.52487
rclavicle 1.42131e-014 -3.12092e-014
rhumerus -18.3244 38.3737 -85.3685
rradius 135.525
rwrist -16.2591
rhand -44.5014 -62.2968
rfingers 7.12502
rthumb -17.3038 451.546
lclavicle 1.42131e-014 -3.12092e-014
lhumerus -57.1078 -8.40441 92.9813
lradius 50.8866
lwrist 9.5117
lhand -11.3258 10.0673
lfingers 7.12502
lthumb 14.7066 39.5256
rfemur -48.9542 -11.7633 14.0453
rtibia 72.2964
rfoot 19.85 12.2002
rtoes 35.9338
lfemur -14.6031 4.23673 -29.5275
ltibia 36.3553
lfoot -21.7795 -13.8222
ltoes 32.3566
821
root 5.54777 16.6242 1.94455 4.53726 3.15606 7.52151
lowerback 3.76952 2.22331 -8.83511
upperback 4.33052 2.8183 -1.63756
thorax 2.05635 1.2035 3.17833
lowerneck -11.088 -4.00131 1.84546
upperneck 38.8726 -6.24498 -0.540799
head 15.4244 -2.38406 -1.52983
rclavicle -3.52843e-014 -1.05356e-014
rhumerus -18.5423 38.0916 -85.4828
rradius 135.481
rwrist -16.287
rhand -44.4816 -62.4829
rfingers 7.12502
rthumb -17.2847 451.734
lclavicle -3.52843e-014 -1.05356e-014
lhumerus -57.1878 -8.51236 92.7952
lradius 50.8328
lwrist 9.05413
lhand -12.5945 10.0013
lfingers 7.12502
lthumb 13.484 39.5448
rfemur -48.2903 -11.2839 13.8226
rtibia 72.5898
rfoot 18.2206 12.2231
rtoes 33.8608
lfemur -14.3418 4.47088 -29.4784
ltibia 36.7551
lfoot -22.1558 -14.2312
ltoes 32.7114
822
root 5.53298 16.6027 1.99682 4.35872 3.23337 7.55179
lowerback 3.76498 2.28706 -9.11882
upperback 4.36402 2.90089 -1.67814
thorax 2.07636 1.23608 3.2911
lowerneck -11.0866 -4.07954 1.98275
upperneck 39.0025 -6.45201 -0.421016
head 15.4881 -2.43066 -1.5388
rclavicle 3.49116e-014 1.19271e-014
rhumerus -18.7998 37.8782 -85.6656
rradius 135.425
rwrist -16.4178
rhand -44.4815 -62.6618
rfingers 7.12502
rthumb -17.2847 451.913
lclavicle 3.49116e-014 1.19271e-014
lhumerus -57.3108 -8.55369 92.5749
lradius 50.823
lwrist 8.55931
lhand -13.6581 9.82318
lfingers 7.12502
lthumb 12.4588 39.4318
rfemur -47.6785 -10.8311 13.773
rtibia 72.8676
rfoot 16.5884 11.997
rtoes 31.7804
lfemur -14.119 4.66576 -29.3827
ltibia 37.1156
lfoot -22.4225 -14.5334
ltoes 32.9649
823
root 5.52045 16.5959 2.04947 4.23588 3.22099 7.50494
lowerback 3.69913 2.35323 -9.29389
upperback 4.37927 2.99455 -1.69982
thorax 2.11256 1.27645 3.36517
lowerneck -11.0811 -4.13798 2.09617
upperneck 39.2039 -6.61232 -0.337379
head 15.5874 -2.46333 -1.55336
rclavicle 2.73826e-014 -2.127e-014
rhumerus -19.0781 37.7603 -85.8924
rradius 135.355
rwrist -16.6098
rhand -44.4944 -62.8248
rfingers 7.12502
rthumb -17.2971 452.075
lclavicle 2.73826e-014 -2.127e-014
lhumerus -57.4639 -8.50156 92.3315
lradius 50.8499
lwrist 8.11621
lhand -14.4677 9.58731
lfingers 7.12502
lthumb 11.6781 39.2418
rfemur -47.143 -10.4125 13.9098
rtibia 73.0316
rfoot 15.2465 11.4701
rtoes 30.0915
lfemur -13.9273 4.77592 -29.2284
ltibia 37.3865
lfoot -22.5685 -14.6582
ltoes 32.983
824
root 5.51141 16.605 2.10199 4.17966 3.12399 7.34904
lowerback 3.56535 2.41817 -9.31942
upperback 4.37275 3.09544 -1.68445
thorax 2.16623 1.32361 3.39749
lowerneck -11.069 -4.17775 2.17438
upperneck 39.4617 -6.7185 -0.302925
head 15.7142 -2.48282 -1.57546
rclavicle 3.65515e-014 -3.8266e-014
rhumerus -19.357 37.7486 -86.1275
rradius 135.278
rwrist -16.8248
rhand -44.5277 -62.9502
rfingers 7.12502
rthumb -17.3292 452.198
lclavicle 3.65515e-014 -3.8266e-014
lhumerus -57.6473 -8.34565 92.0881
lradius 50.9206
lwrist 7.8096
lhand -15.0045 9.3043
lfingers 7.12502
lthumb 11.1604 38.9875
rfemur -46.7083 -10.0227 14.242
rtibia 73.0317
rfoot 14.4429 10.6249
rtoes 29.4255
lfemur -13.7848 4.77847 -28.9966
ltibia 37.5749
lfoot -22.5873 -14.5437
ltoes 32.7037
